<svg width="586.03mm" height="403.02mm" viewBox="0 0 586.03 403.02" xmlns="http://www.w3.org/2000/svg" version="1.1" preserveAspectRatio="xMidYMid meet"><g id="svgGroup" stroke-linecap="round" fill-rule="evenodd" font-size="9pt" stroke="#000" stroke-width="0.25mm" fill="none" style="stroke:#000;stroke-width:0.25mm;fill:none"><path d="M 19.947 403.017 L 19.947 400.02 L 42.812 400.02 L 42.812 403.017 L 42.815 403.02 L 65.695 403.02 L 65.697 403.017 L 65.697 400.02 L 88.563 400.02 L 88.563 403.017 L 88.565 403.02 L 111.445 403.02 L 111.447 403.017 L 111.447 400.02 L 134.313 400.02 L 134.313 403.017 L 134.315 403.02 L 157.195 403.02 L 157.198 403.017 L 157.198 400.02 L 180.063 400.02 L 180.063 403.017 L 180.065 403.02 L 200.007 403.02 L 200.01 403.017 L 200.01 383.075 L 200.007 383.073 L 197.01 383.073 L 197.01 360.208 L 200.007 360.208 L 200.01 360.205 L 200.01 337.325 L 200.007 337.323 L 197.01 337.323 L 197.01 314.458 L 200.007 314.458 L 200.01 314.455 L 200.01 291.575 L 200.007 291.573 L 197.01 291.573 L 197.01 268.708 L 200.007 268.708 L 200.01 268.705 L 200.01 245.825 L 200.007 245.823 L 197.01 245.823 L 197.01 222.957 L 200.007 222.957 L 200.01 222.955 L 200.01 203.013 L 200.007 203.01 L 0.003 203.01 L 0 203.013 L 0 222.955 L 0.003 222.957 L 3 222.957 L 3 245.823 L 0.003 245.823 L 0 245.825 L 0 268.705 L 0.003 268.708 L 3 268.708 L 3 291.573 L 0.003 291.573 L 0 291.575 L 0 314.455 L 0.003 314.458 L 3 314.458 L 3 337.323 L 0.003 337.323 L 0 337.325 L 0 360.205 L 0.003 360.208 L 3 360.208 L 3 383.073 L 0.003 383.073 L 0 383.075 L 0 403.017 L 0.003 403.02 L 19.945 403.02 L 19.947 403.017 Z" id="front_outsideCutPath" stroke="#FF0000" stroke-width="0.1" style="stroke:#FF0000;stroke-width:0.1" vector-effect="non-scaling-stroke"/><path d="M 129.157 318.123 L 125.914 318.123 L 125.914 304.274 A 9.165 9.165 0 0 0 125.809 302.837 Q 125.689 302.08 125.43 301.477 A 3.857 3.857 0 0 0 124.723 300.368 Q 123.758 299.324 121.911 299.126 A 8.596 8.596 0 0 0 120.992 299.079 Q 118.779 299.079 117.346 299.867 A 4.571 4.571 0 0 0 116.07 300.895 A 5.301 5.301 0 0 0 115.149 302.506 Q 114.594 303.984 114.519 306.188 A 20.772 20.772 0 0 0 114.508 306.892 L 114.508 318.123 L 111.265 318.123 L 111.265 296.715 L 113.902 296.715 L 114.43 299.645 L 114.586 299.645 A 6.565 6.565 0 0 1 117.157 297.305 A 7.895 7.895 0 0 1 117.379 297.194 A 8.78 8.78 0 0 1 120.503 296.361 A 10.617 10.617 0 0 1 121.383 296.325 A 12.801 12.801 0 0 1 123.562 296.498 Q 124.739 296.702 125.671 297.145 A 5.826 5.826 0 0 1 127.204 298.19 Q 128.69 299.609 129.045 302.322 A 14.15 14.15 0 0 1 129.157 304.157 L 129.157 318.123 Z M 66.869 296.715 L 66.869 299.235 L 61.419 299.235 L 61.419 318.123 L 58.177 318.123 L 58.177 299.235 L 54.348 299.235 L 54.348 297.77 L 58.177 296.598 L 58.177 295.407 Q 58.177 287.516 65.072 287.516 A 10.441 10.441 0 0 1 66.549 287.629 Q 67.268 287.732 68.068 287.929 A 20.989 20.989 0 0 1 69.056 288.199 L 68.216 290.797 Q 66.884 290.367 65.828 290.242 A 6.973 6.973 0 0 0 65.013 290.192 A 4.373 4.373 0 0 0 63.959 290.311 A 2.808 2.808 0 0 0 62.298 291.412 Q 61.419 292.633 61.419 295.329 L 61.419 296.715 L 66.869 296.715 Z M 145.662 315.447 L 145.662 317.927 A 3.189 3.189 0 0 1 145.283 318.078 Q 144.88 318.211 144.302 318.314 A 12.126 12.126 0 0 1 144.109 318.347 Q 143.151 318.502 142.373 318.513 A 8.313 8.313 0 0 1 142.263 318.513 A 8.469 8.469 0 0 1 139.767 318.178 Q 136.052 317.031 136.052 311.97 L 136.052 299.235 L 132.985 299.235 L 132.985 297.673 L 136.052 296.325 L 137.419 291.754 L 139.294 291.754 L 139.294 296.715 L 145.505 296.715 L 145.505 299.235 L 139.294 299.235 L 139.294 311.833 A 6.529 6.529 0 0 0 139.388 312.98 Q 139.501 313.609 139.747 314.107 A 3.145 3.145 0 0 0 140.212 314.802 A 3.012 3.012 0 0 0 142.064 315.788 A 4.334 4.334 0 0 0 142.732 315.837 A 10.648 10.648 0 0 0 144.292 315.726 A 9.813 9.813 0 0 0 144.392 315.711 Q 145.193 315.584 145.662 315.447 Z M 83.1 296.559 L 82.651 299.567 A 14.29 14.29 0 0 0 81.623 299.377 Q 80.91 299.274 80.307 299.274 Q 77.709 299.274 75.863 301.384 A 7.404 7.404 0 0 0 74.077 305.541 A 9.842 9.842 0 0 0 74.017 306.638 L 74.017 318.123 L 70.775 318.123 L 70.775 296.715 L 73.451 296.715 L 73.822 300.68 L 73.978 300.68 A 10.95 10.95 0 0 1 75.203 298.931 A 8.364 8.364 0 0 1 76.85 297.458 A 6.464 6.464 0 0 1 80.541 296.325 A 14.885 14.885 0 0 1 81.874 296.382 A 10.864 10.864 0 0 1 83.1 296.559 Z M 105.581 307.4 Q 105.581 312.634 102.945 315.574 A 8.644 8.644 0 0 1 97.858 318.33 A 12.59 12.59 0 0 1 95.659 318.513 A 10.412 10.412 0 0 1 92.633 318.087 A 9.028 9.028 0 0 1 90.561 317.166 Q 88.334 315.818 87.123 313.298 A 11.995 11.995 0 0 1 86.116 310.027 A 16.22 16.22 0 0 1 85.912 307.4 A 16.835 16.835 0 0 1 86.208 304.144 Q 86.582 302.248 87.43 300.77 A 8.958 8.958 0 0 1 88.53 299.245 A 8.576 8.576 0 0 1 93.534 296.519 A 12.593 12.593 0 0 1 95.796 296.325 A 10.895 10.895 0 0 1 98.994 296.772 A 8.488 8.488 0 0 1 102.935 299.313 A 10.096 10.096 0 0 1 105.14 303.589 Q 105.526 305.102 105.575 306.885 A 19.029 19.029 0 0 1 105.581 307.4 Z M 89.272 307.4 A 16.419 16.419 0 0 0 89.428 309.745 Q 89.778 312.164 90.913 313.65 A 5.314 5.314 0 0 0 94.374 315.688 A 8.053 8.053 0 0 0 95.737 315.798 A 7.531 7.531 0 0 0 97.724 315.551 A 5.241 5.241 0 0 0 100.571 313.66 A 6.96 6.96 0 0 0 101.655 311.549 Q 102.222 309.814 102.222 307.4 Q 102.222 303.317 100.571 301.198 A 5.334 5.334 0 0 0 97.255 299.22 A 8.178 8.178 0 0 0 95.698 299.079 A 7.716 7.716 0 0 0 93.777 299.304 A 5.164 5.164 0 0 0 90.893 301.169 Q 89.726 302.673 89.399 305.24 A 17.133 17.133 0 0 0 89.272 307.4 Z" id="front_labelLayer" stroke="#777777" fill="#777777" style="stroke:#777777;fill:#777777" vector-effect="non-scaling-stroke"/><path d="M 235.832 403.017 L 235.832 400.02 L 258.698 400.02 L 258.698 403.017 L 258.7 403.02 L 281.58 403.02 L 281.583 403.017 L 281.583 400.02 L 304.448 400.02 L 304.448 403.017 L 304.45 403.02 L 327.33 403.02 L 327.333 403.017 L 327.333 400.02 L 350.198 400.02 L 350.198 403.017 L 350.2 403.02 L 380.017 403.02 L 380.02 403.017 L 380.02 383.083 L 383.017 383.083 L 383.02 383.08 L 383.02 360.2 L 383.017 360.198 L 380.02 360.198 L 380.02 337.333 L 383.017 337.333 L 383.02 337.33 L 383.02 314.45 L 383.017 314.448 L 380.02 314.448 L 380.02 291.583 L 383.017 291.583 L 383.02 291.58 L 383.02 268.7 L 383.017 268.698 L 380.02 268.698 L 380.02 245.832 L 383.017 245.832 L 383.02 245.83 L 383.02 222.95 L 383.017 222.948 L 380.02 222.948 L 380.02 203.013 L 380.017 203.01 L 206.013 203.01 L 206.01 203.013 L 206.01 222.948 L 203.013 222.948 L 203.01 222.95 L 203.01 245.83 L 203.013 245.832 L 206.01 245.832 L 206.01 268.698 L 203.013 268.698 L 203.01 268.7 L 203.01 291.58 L 203.013 291.583 L 206.01 291.583 L 206.01 314.448 L 203.013 314.448 L 203.01 314.45 L 203.01 337.33 L 203.013 337.333 L 206.01 337.333 L 206.01 360.198 L 203.013 360.198 L 203.01 360.2 L 203.01 383.08 L 203.013 383.083 L 206.01 383.083 L 206.01 403.017 L 206.013 403.02 L 235.83 403.02 L 235.832 403.017 Z" id="left_outsideCutPath" stroke="#FF0000" stroke-width="0.1" style="stroke:#FF0000;stroke-width:0.1" vector-effect="non-scaling-stroke"/><path d="M 305.821 297.345 L 305.821 299.613 L 300.917 299.613 L 300.917 316.612 L 297.999 316.612 L 297.999 299.613 L 294.553 299.613 L 294.553 298.295 L 297.999 297.24 L 297.999 296.168 Q 297.999 290.037 302.623 289.198 A 8.87 8.87 0 0 1 304.204 289.066 Q 305.393 289.066 306.9 289.437 A 18.89 18.89 0 0 1 307.79 289.681 L 307.034 292.019 Q 305.836 291.632 304.885 291.52 A 6.276 6.276 0 0 0 304.151 291.474 A 3.935 3.935 0 0 0 303.203 291.581 A 2.527 2.527 0 0 0 301.708 292.573 Q 300.99 293.569 300.924 295.658 A 13.777 13.777 0 0 0 300.917 296.097 L 300.917 297.345 L 305.821 297.345 Z M 292.162 305.66 L 292.162 307.506 L 278.89 307.506 Q 278.95 309.824 279.728 311.378 A 5.479 5.479 0 0 0 280.604 312.657 A 5.302 5.302 0 0 0 283.388 314.225 A 8.034 8.034 0 0 0 285.184 314.415 A 15.412 15.412 0 0 0 290.956 313.271 A 17.661 17.661 0 0 0 291.336 313.114 L 291.336 315.716 A 17.519 17.519 0 0 1 289.74 316.319 A 13.397 13.397 0 0 1 288.409 316.674 Q 287.337 316.899 285.919 316.949 A 23.775 23.775 0 0 1 285.078 316.964 A 11.34 11.34 0 0 1 282.24 316.628 A 8.029 8.029 0 0 1 278.336 314.362 Q 276.009 311.91 275.875 307.664 A 16.668 16.668 0 0 1 275.867 307.137 Q 275.867 302.478 278.161 299.736 Q 280.455 296.994 284.322 296.994 A 8.89 8.89 0 0 1 286.826 297.329 A 6.765 6.765 0 0 1 290.053 299.376 A 8.159 8.159 0 0 1 291.902 303.104 A 11.877 11.877 0 0 1 292.162 305.66 Z M 318.197 314.204 L 318.197 316.436 Q 317.722 316.665 316.8 316.814 Q 315.877 316.964 315.138 316.964 A 7.622 7.622 0 0 1 312.892 316.661 Q 310.423 315.899 309.777 313.217 A 9.172 9.172 0 0 1 309.548 311.075 L 309.548 299.613 L 306.788 299.613 L 306.788 298.207 L 309.548 296.994 L 310.779 292.88 L 312.466 292.88 L 312.466 297.345 L 318.056 297.345 L 318.056 299.613 L 312.466 299.613 L 312.466 310.952 A 5.876 5.876 0 0 0 312.551 311.984 Q 312.731 312.99 313.292 313.624 Q 314.119 314.555 315.56 314.555 A 9.584 9.584 0 0 0 316.964 314.455 A 8.832 8.832 0 0 0 317.054 314.441 A 15.786 15.786 0 0 0 317.476 314.369 Q 317.878 314.294 318.158 314.215 A 4.381 4.381 0 0 0 318.197 314.204 Z M 270.751 289.259 L 270.751 316.612 L 267.833 316.612 L 267.833 289.259 L 270.751 289.259 Z M 278.961 305.133 L 289.033 305.133 Q 289.033 303.266 288.47 301.99 A 4.515 4.515 0 0 0 287.803 300.905 A 3.998 3.998 0 0 0 285.395 299.535 A 5.997 5.997 0 0 0 284.287 299.437 A 5.752 5.752 0 0 0 282.625 299.666 A 4.444 4.444 0 0 0 280.587 300.949 A 5.764 5.764 0 0 0 279.44 302.883 Q 279.15 303.678 279.018 304.635 A 11.025 11.025 0 0 0 278.961 305.133 Z" id="left_labelLayer" stroke="#777777" fill="#777777" style="stroke:#777777;fill:#777777" vector-effect="non-scaling-stroke"/><path d="M 19.947 200.007 L 19.947 197.01 L 42.812 197.01 L 42.812 200.007 L 42.815 200.01 L 65.695 200.01 L 65.697 200.007 L 65.697 197.01 L 88.563 197.01 L 88.563 200.007 L 88.565 200.01 L 111.445 200.01 L 111.447 200.007 L 111.447 197.01 L 134.313 197.01 L 134.313 200.007 L 134.315 200.01 L 157.195 200.01 L 157.198 200.007 L 157.198 197.01 L 180.063 197.01 L 180.063 200.007 L 180.065 200.01 L 200.007 200.01 L 200.01 200.007 L 200.01 180.065 L 200.007 180.063 L 197.01 180.063 L 197.01 157.198 L 200.007 157.198 L 200.01 157.195 L 200.01 134.315 L 200.007 134.313 L 197.01 134.313 L 197.01 111.447 L 200.007 111.447 L 200.01 111.445 L 200.01 88.565 L 200.007 88.563 L 197.01 88.563 L 197.01 65.697 L 200.007 65.697 L 200.01 65.695 L 200.01 42.815 L 200.007 42.813 L 197.01 42.813 L 197.01 19.947 L 200.007 19.947 L 200.01 19.945 L 200.01 0.003 L 200.007 0 L 0.003 0 L 0 0.003 L 0 19.945 L 0.003 19.947 L 3 19.947 L 3 42.813 L 0.003 42.813 L 0 42.815 L 0 65.695 L 0.003 65.697 L 3 65.697 L 3 88.563 L 0.003 88.563 L 0 88.565 L 0 111.445 L 0.003 111.447 L 3 111.447 L 3 134.313 L 0.003 134.313 L 0 134.315 L 0 157.195 L 0.003 157.198 L 3 157.198 L 3 180.063 L 0.003 180.063 L 0 180.065 L 0 200.007 L 0.003 200.01 L 19.945 200.01 L 19.947 200.007 Z" id="back_outsideCutPath" stroke="#FF0000" stroke-width="0.1" style="stroke:#FF0000;stroke-width:0.1" vector-effect="non-scaling-stroke"/><path d="M 127.389 104.048 L 127.545 104.048 A 19.194 19.194 0 0 1 128.02 103.406 Q 128.815 102.373 130.104 100.923 L 137.019 93.598 L 140.866 93.598 L 132.194 102.72 L 141.472 115.006 L 137.546 115.006 L 129.987 104.888 L 127.545 106.997 L 127.545 115.006 L 124.342 115.006 L 124.342 84.613 L 127.545 84.613 L 127.545 100.727 A 21.607 21.607 0 0 1 127.536 101.338 Q 127.506 102.363 127.389 104.048 Z M 61.78 112.251 L 61.546 112.251 L 60.862 115.006 L 58.538 115.006 L 58.538 84.613 L 61.78 84.613 L 61.78 91.997 Q 61.78 94.477 61.624 96.45 L 61.78 96.45 A 7.372 7.372 0 0 1 67.161 93.325 A 11.074 11.074 0 0 1 68.5 93.247 A 9.91 9.91 0 0 1 71.288 93.619 A 7.418 7.418 0 0 1 75.053 96.128 A 9.554 9.554 0 0 1 76.728 99.354 Q 77.387 101.481 77.387 104.282 Q 77.387 108.004 76.215 110.553 A 9.113 9.113 0 0 1 75.033 112.476 A 7.676 7.676 0 0 1 69.578 115.345 A 10.997 10.997 0 0 1 68.5 115.396 Q 66.41 115.396 64.681 114.625 A 7.181 7.181 0 0 1 61.78 112.251 Z M 98.618 115.006 L 96.216 115.006 L 95.571 111.959 L 95.415 111.959 A 13.441 13.441 0 0 1 94.327 113.176 Q 93.742 113.751 93.158 114.152 A 5.974 5.974 0 0 1 92.221 114.683 Q 90.63 115.396 88.247 115.396 A 9.95 9.95 0 0 1 86.222 115.203 Q 84.984 114.945 84.034 114.346 A 5.583 5.583 0 0 1 83.256 113.755 A 5.329 5.329 0 0 1 81.649 110.945 A 8.158 8.158 0 0 1 81.449 109.087 A 5.61 5.61 0 0 1 84.641 103.792 Q 87.017 102.528 91.162 102.317 A 31.672 31.672 0 0 1 91.821 102.29 L 95.454 102.173 L 95.454 100.845 A 9.313 9.313 0 0 0 95.363 99.498 Q 95.141 97.978 94.37 97.124 Q 93.505 96.165 91.813 95.972 A 8.011 8.011 0 0 0 90.903 95.923 A 10.556 10.556 0 0 0 88.474 96.225 Q 87.359 96.489 86.146 96.983 A 21.715 21.715 0 0 0 84.848 97.563 L 83.852 95.083 A 14.949 14.949 0 0 1 86.737 93.897 A 17.016 17.016 0 0 1 87.319 93.735 Q 89.204 93.247 91.098 93.247 A 13.694 13.694 0 0 1 93.184 93.394 Q 95.471 93.748 96.772 94.946 A 5.134 5.134 0 0 1 98.097 96.99 Q 98.618 98.403 98.618 100.395 L 98.618 115.006 Z M 119.576 94.321 L 118.58 97.075 A 14.424 14.424 0 0 0 117.015 96.555 A 17.227 17.227 0 0 0 116.236 96.362 Q 114.967 96.079 113.99 96.079 Q 108.195 96.079 107.548 102.644 A 17.916 17.916 0 0 0 107.466 104.4 A 15.703 15.703 0 0 0 107.622 106.686 Q 107.964 109.004 109.058 110.455 A 5.15 5.15 0 0 0 112.395 112.448 A 7.844 7.844 0 0 0 113.775 112.564 A 13.573 13.573 0 0 0 117.519 112.019 A 16.758 16.758 0 0 0 119.264 111.412 L 119.264 114.283 Q 117.115 115.396 113.853 115.396 A 12.118 12.118 0 0 1 110.905 115.058 A 8.217 8.217 0 0 1 106.656 112.535 A 9.379 9.379 0 0 1 104.705 108.953 Q 104.107 106.974 104.107 104.439 A 17.89 17.89 0 0 1 104.384 101.185 Q 104.953 98.109 106.695 96.137 Q 109.283 93.208 114.068 93.208 Q 115.611 93.208 117.154 93.54 A 16.184 16.184 0 0 1 118.054 93.759 Q 118.957 94.008 119.557 94.311 A 4.83 4.83 0 0 1 119.576 94.321 Z M 64.498 96.766 A 4.312 4.312 0 0 0 63.245 97.866 A 5.55 5.55 0 0 0 62.442 99.397 Q 61.78 101.251 61.78 104.282 A 21.438 21.438 0 0 0 61.887 106.498 Q 62.18 109.311 63.284 110.738 A 4.704 4.704 0 0 0 65.671 112.348 Q 66.468 112.598 67.441 112.66 A 10.425 10.425 0 0 0 68.109 112.681 A 6.464 6.464 0 0 0 69.945 112.435 A 4.663 4.663 0 0 0 72.562 110.503 Q 73.609 108.948 73.908 106.42 A 18.578 18.578 0 0 0 74.027 104.243 A 19.156 19.156 0 0 0 73.911 102.06 Q 73.637 99.673 72.711 98.232 A 5.379 5.379 0 0 0 72.562 98.012 A 4.728 4.728 0 0 0 69.552 96.107 A 7.499 7.499 0 0 0 68.031 95.962 Q 65.872 95.962 64.498 96.766 Z M 95.376 106.411 L 95.376 104.478 L 92.134 104.614 Q 88.904 104.729 87.18 105.49 A 4.98 4.98 0 0 0 86.557 105.816 A 3.46 3.46 0 0 0 84.908 108.326 A 5.121 5.121 0 0 0 84.848 109.126 A 4.634 4.634 0 0 0 84.963 110.19 Q 85.197 111.185 85.912 111.802 Q 86.832 112.595 88.385 112.703 A 7.292 7.292 0 0 0 88.891 112.72 A 8.927 8.927 0 0 0 90.819 112.524 Q 92.162 112.227 93.154 111.481 A 5.413 5.413 0 0 0 93.647 111.06 Q 95.376 109.4 95.376 106.411 Z" id="back_labelLayer" stroke="#777777" fill="#777777" style="stroke:#777777;fill:#777777" vector-effect="non-scaling-stroke"/><path d="M 235.832 200.007 L 235.832 197.01 L 258.698 197.01 L 258.698 200.007 L 258.7 200.01 L 281.58 200.01 L 281.583 200.007 L 281.583 197.01 L 304.448 197.01 L 304.448 200.007 L 304.45 200.01 L 327.33 200.01 L 327.333 200.007 L 327.333 197.01 L 350.198 197.01 L 350.198 200.007 L 350.2 200.01 L 380.017 200.01 L 380.02 200.007 L 380.02 180.073 L 383.017 180.073 L 383.02 180.07 L 383.02 157.19 L 383.017 157.188 L 380.02 157.188 L 380.02 134.323 L 383.017 134.323 L 383.02 134.32 L 383.02 111.44 L 383.017 111.438 L 380.02 111.438 L 380.02 88.572 L 383.017 88.572 L 383.02 88.57 L 383.02 65.69 L 383.017 65.688 L 380.02 65.688 L 380.02 42.822 L 383.017 42.822 L 383.02 42.82 L 383.02 19.94 L 383.017 19.938 L 380.02 19.938 L 380.02 0.003 L 380.017 0 L 206.013 0 L 206.01 0.003 L 206.01 19.938 L 203.013 19.938 L 203.01 19.94 L 203.01 42.82 L 203.013 42.822 L 206.01 42.822 L 206.01 65.688 L 203.013 65.688 L 203.01 65.69 L 203.01 88.57 L 203.013 88.572 L 206.01 88.572 L 206.01 111.438 L 203.013 111.438 L 203.01 111.44 L 203.01 134.32 L 203.013 134.323 L 206.01 134.323 L 206.01 157.188 L 203.013 157.188 L 203.01 157.19 L 203.01 180.07 L 203.013 180.073 L 206.01 180.073 L 206.01 200.007 L 206.013 200.01 L 235.83 200.01 L 235.832 200.007 Z" id="right_outsideCutPath" stroke="#FF0000" stroke-width="0.1" style="stroke:#FF0000;stroke-width:0.1" vector-effect="non-scaling-stroke"/><path d="M 315.402 109.357 L 312.484 109.357 L 312.484 96.893 A 8.249 8.249 0 0 0 312.389 95.6 Q 312.281 94.919 312.048 94.376 A 3.471 3.471 0 0 0 311.412 93.378 A 3.29 3.29 0 0 0 310.062 92.517 Q 309.532 92.33 308.88 92.259 A 7.736 7.736 0 0 0 308.054 92.217 Q 306.068 92.217 304.783 92.922 A 4.086 4.086 0 0 0 303.615 93.87 Q 302.337 95.381 302.228 98.655 A 18.833 18.833 0 0 0 302.218 99.284 L 302.218 109.357 L 299.3 109.357 L 299.3 82.004 L 302.218 82.004 L 302.218 90.284 A 26.251 26.251 0 0 1 302.199 91.292 Q 302.181 91.764 302.145 92.17 A 11.415 11.415 0 0 1 302.077 92.762 L 302.253 92.762 A 5.83 5.83 0 0 1 304.295 90.797 A 7.123 7.123 0 0 1 304.705 90.574 A 7.491 7.491 0 0 1 307.164 89.844 A 9.471 9.471 0 0 1 308.335 89.774 A 11.839 11.839 0 0 1 310.324 89.93 Q 311.382 90.11 312.219 90.5 A 5.26 5.26 0 0 1 313.635 91.453 A 5.081 5.081 0 0 1 314.889 93.42 Q 315.402 94.817 315.402 96.788 L 315.402 109.357 Z M 288.682 90.09 L 295.344 90.09 L 295.344 91.936 L 291.776 92.358 A 4.742 4.742 0 0 1 292.186 92.969 Q 292.367 93.284 292.53 93.662 A 8.996 8.996 0 0 1 292.655 93.966 A 5.614 5.614 0 0 1 292.987 95.308 A 7.21 7.21 0 0 1 293.041 96.208 Q 293.041 99.038 291.108 100.726 Q 289.174 102.413 285.799 102.413 A 9.378 9.378 0 0 1 284.714 102.353 A 7.92 7.92 0 0 1 284.182 102.273 Q 283.118 102.835 282.661 103.563 A 2.196 2.196 0 0 0 282.318 104.751 A 1.512 1.512 0 0 0 282.395 105.246 Q 282.535 105.652 282.929 105.897 A 1.62 1.62 0 0 0 282.969 105.92 A 2.047 2.047 0 0 0 283.422 106.107 Q 283.898 106.246 284.621 106.284 A 11.101 11.101 0 0 0 285.201 106.298 L 288.611 106.298 A 11.945 11.945 0 0 1 290.425 106.427 Q 291.374 106.573 292.14 106.885 A 5.274 5.274 0 0 1 293.419 107.617 A 4.269 4.269 0 0 1 295.006 110.336 A 6.412 6.412 0 0 1 295.098 111.449 A 6.318 6.318 0 0 1 294.737 113.635 Q 294.136 115.278 292.532 116.327 A 8.751 8.751 0 0 1 290.275 117.35 Q 288.119 118.006 285.043 118.006 A 16.35 16.35 0 0 1 282.85 117.869 Q 280.623 117.566 279.215 116.6 A 4.651 4.651 0 0 1 277.716 114.973 Q 277.236 114.082 277.176 112.954 A 6.162 6.162 0 0 1 277.167 112.627 A 4.462 4.462 0 0 1 278.293 109.586 A 5.095 5.095 0 0 1 280.043 108.31 A 7.222 7.222 0 0 1 281.457 107.845 A 3.029 3.029 0 0 1 280.281 106.894 A 3.596 3.596 0 0 1 280.217 106.808 A 2.705 2.705 0 0 1 279.721 105.346 A 3.351 3.351 0 0 1 279.716 105.173 A 3.337 3.337 0 0 1 279.885 104.098 A 2.957 2.957 0 0 1 280.279 103.327 A 4.177 4.177 0 0 1 280.83 102.705 Q 281.124 102.43 281.5 102.162 A 9.167 9.167 0 0 1 282.054 101.798 A 5.116 5.116 0 0 1 279.832 100.019 A 6.341 6.341 0 0 1 279.62 99.706 A 6.032 6.032 0 0 1 278.694 96.799 A 7.363 7.363 0 0 1 278.679 96.331 A 8.431 8.431 0 0 1 278.901 94.337 A 5.547 5.547 0 0 1 280.578 91.453 Q 282.476 89.739 285.957 89.739 A 11.185 11.185 0 0 1 287.437 89.832 A 8.519 8.519 0 0 1 288.682 90.09 Z M 330.256 106.949 L 330.256 109.181 Q 329.782 109.41 328.859 109.559 Q 327.936 109.709 327.198 109.709 A 7.622 7.622 0 0 1 324.951 109.406 Q 322.483 108.644 321.836 105.962 A 9.172 9.172 0 0 1 321.607 103.82 L 321.607 92.358 L 318.847 92.358 L 318.847 90.952 L 321.607 89.739 L 322.838 85.625 L 324.526 85.625 L 324.526 90.09 L 330.116 90.09 L 330.116 92.358 L 324.526 92.358 L 324.526 103.697 A 5.876 5.876 0 0 0 324.61 104.728 Q 324.79 105.735 325.352 106.369 Q 326.178 107.3 327.619 107.3 A 9.584 9.584 0 0 0 329.023 107.2 A 8.832 8.832 0 0 0 329.114 107.186 A 15.786 15.786 0 0 0 329.535 107.114 Q 329.938 107.039 330.217 106.96 A 4.381 4.381 0 0 0 330.256 106.949 Z M 266.866 89.95 L 266.462 92.657 A 12.861 12.861 0 0 0 265.537 92.486 Q 265.076 92.419 264.665 92.4 A 6.844 6.844 0 0 0 264.352 92.393 A 5.056 5.056 0 0 0 260.617 94.007 A 6.917 6.917 0 0 0 260.353 94.292 A 6.664 6.664 0 0 0 258.745 98.033 A 8.857 8.857 0 0 0 258.692 99.02 L 258.692 109.357 L 255.774 109.357 L 255.774 90.09 L 258.182 90.09 L 258.516 93.659 L 258.657 93.659 A 9.855 9.855 0 0 1 259.759 92.085 A 7.528 7.528 0 0 1 261.241 90.758 A 5.817 5.817 0 0 1 264.563 89.739 A 13.397 13.397 0 0 1 265.763 89.79 A 9.778 9.778 0 0 1 266.866 89.95 Z M 273.388 90.09 L 273.388 109.357 L 270.47 109.357 L 270.47 90.09 L 273.388 90.09 Z M 287.68 108.917 L 284.182 108.917 Q 282.727 108.917 281.744 109.427 A 3.418 3.418 0 0 0 281.088 109.867 A 3.075 3.075 0 0 0 280.078 111.61 A 4.669 4.669 0 0 0 279.98 112.592 Q 279.98 114.156 281.299 114.965 Q 282.611 115.769 285.054 115.773 A 14.991 14.991 0 0 0 285.078 115.773 A 19.617 19.617 0 0 0 286.994 115.686 Q 288.914 115.497 290.12 114.897 A 4.847 4.847 0 0 0 290.519 114.675 A 4.257 4.257 0 0 0 291.506 113.848 A 3.19 3.19 0 0 0 292.285 111.695 A 3.948 3.948 0 0 0 292.213 110.911 Q 292.122 110.46 291.914 110.124 A 1.839 1.839 0 0 0 291.319 109.524 Q 290.582 109.062 288.857 108.952 A 18.568 18.568 0 0 0 287.68 108.917 Z M 281.562 96.261 A 5.696 5.696 0 0 0 281.679 97.455 Q 281.838 98.195 282.213 98.75 A 3.122 3.122 0 0 0 282.705 99.319 A 3.772 3.772 0 0 0 284.223 100.144 Q 284.963 100.356 285.887 100.356 Q 289.259 100.356 289.969 97.771 A 5.91 5.91 0 0 0 290.158 96.208 A 6.275 6.275 0 0 0 289.944 94.49 Q 289.394 92.563 287.435 92.051 A 6.347 6.347 0 0 0 285.834 91.866 A 6.123 6.123 0 0 0 284.586 91.985 Q 283.414 92.229 282.67 92.973 Q 281.562 94.081 281.562 96.261 Z M 270.224 84.869 Q 270.224 83.867 270.716 83.401 A 1.687 1.687 0 0 1 271.799 82.94 A 2.228 2.228 0 0 1 271.946 82.936 A 1.719 1.719 0 0 1 273.159 83.41 Q 273.669 83.885 273.669 84.869 A 3.019 3.019 0 0 1 273.622 85.423 Q 273.564 85.73 273.438 85.969 A 1.424 1.424 0 0 1 273.159 86.337 A 1.702 1.702 0 0 1 271.946 86.821 A 1.854 1.854 0 0 1 271.308 86.714 A 1.637 1.637 0 0 1 270.716 86.337 A 1.507 1.507 0 0 1 270.349 85.734 Q 270.224 85.365 270.224 84.869 Z" id="right_labelLayer" stroke="#777777" fill="#777777" style="stroke:#777777;fill:#777777" vector-effect="non-scaling-stroke"/><path d="M 428.843 403.017 L 428.843 400.02 L 451.708 400.02 L 451.708 403.017 L 451.71 403.02 L 474.59 403.02 L 474.593 403.017 L 474.593 400.02 L 497.458 400.02 L 497.458 403.017 L 497.46 403.02 L 520.34 403.02 L 520.343 403.017 L 520.343 400.02 L 543.208 400.02 L 543.208 403.017 L 543.21 403.02 L 566.09 403.02 L 566.093 403.017 L 566.093 400.02 L 583.027 400.02 L 583.03 400.017 L 583.03 370.208 L 586.027 370.208 L 586.03 370.205 L 586.03 347.325 L 586.027 347.323 L 583.03 347.323 L 583.03 324.458 L 586.027 324.458 L 586.03 324.455 L 586.03 301.575 L 586.027 301.573 L 583.03 301.573 L 583.03 278.708 L 586.027 278.708 L 586.03 278.705 L 586.03 255.825 L 586.027 255.823 L 583.03 255.823 L 583.03 226.013 L 583.027 226.01 L 566.093 226.01 L 566.093 223.013 L 566.09 223.01 L 543.21 223.01 L 543.208 223.013 L 543.208 226.01 L 520.343 226.01 L 520.343 223.013 L 520.34 223.01 L 497.46 223.01 L 497.458 223.013 L 497.458 226.01 L 474.593 226.01 L 474.593 223.013 L 474.59 223.01 L 451.71 223.01 L 451.708 223.013 L 451.708 226.01 L 428.843 226.01 L 428.843 223.013 L 428.84 223.01 L 405.96 223.01 L 405.958 223.013 L 405.958 226.01 L 389.023 226.01 L 389.02 226.013 L 389.02 255.823 L 386.023 255.823 L 386.02 255.825 L 386.02 278.705 L 386.023 278.708 L 389.02 278.708 L 389.02 301.573 L 386.023 301.573 L 386.02 301.575 L 386.02 324.455 L 386.023 324.458 L 389.02 324.458 L 389.02 347.323 L 386.023 347.323 L 386.02 347.325 L 386.02 370.205 L 386.023 370.208 L 389.02 370.208 L 389.02 400.017 L 389.023 400.02 L 405.958 400.02 L 405.958 403.017 L 405.96 403.02 L 428.84 403.02 L 428.843 403.017 Z" id="bottom_outsideCutPath" stroke="#FF0000" stroke-width="0.1" style="stroke:#FF0000;stroke-width:0.1" vector-effect="non-scaling-stroke"/><path d="M 545.249 326.515 L 542.331 326.515 L 542.331 313.981 A 8.609 8.609 0 0 0 542.244 312.716 Q 542.148 312.069 541.944 311.548 A 3.526 3.526 0 0 0 541.346 310.527 Q 540.485 309.52 538.79 309.394 A 6.774 6.774 0 0 0 538.288 309.376 A 7.509 7.509 0 0 0 536.759 309.521 Q 535.851 309.71 535.166 310.145 A 3.864 3.864 0 0 0 534.262 310.94 A 4.822 4.822 0 0 0 533.444 312.42 Q 532.965 313.765 532.961 315.727 A 16.243 16.243 0 0 0 532.961 315.757 L 532.961 326.515 L 530.043 326.515 L 530.043 313.981 A 8.609 8.609 0 0 0 529.956 312.716 Q 529.86 312.069 529.657 311.548 A 3.526 3.526 0 0 0 529.059 310.527 A 3.061 3.061 0 0 0 527.651 309.612 Q 527.144 309.446 526.525 309.397 A 6.833 6.833 0 0 0 525.982 309.376 Q 523.24 309.376 521.965 311.019 Q 520.691 312.663 520.691 316.407 L 520.691 326.515 L 517.773 326.515 L 517.773 307.249 L 520.146 307.249 L 520.621 309.885 L 520.761 309.885 A 5.735 5.735 0 0 1 523.09 307.688 A 6.928 6.928 0 0 1 525.827 306.92 A 8.368 8.368 0 0 1 526.457 306.897 Q 530.975 306.897 532.363 310.167 L 532.504 310.167 A 6.093 6.093 0 0 1 534.799 307.888 A 7.32 7.32 0 0 1 535 307.776 A 7.386 7.386 0 0 1 537.71 306.952 A 9.209 9.209 0 0 1 538.727 306.897 A 10.144 10.144 0 0 1 540.567 307.053 Q 541.59 307.242 542.388 307.66 A 4.809 4.809 0 0 1 543.623 308.576 A 5.025 5.025 0 0 1 544.702 310.341 Q 544.992 311.119 545.129 312.087 A 13.385 13.385 0 0 1 545.249 313.946 L 545.249 326.515 Z M 429.719 324.037 L 429.508 324.037 L 428.893 326.515 L 426.801 326.515 L 426.801 299.162 L 429.719 299.162 L 429.719 305.807 Q 429.719 308.04 429.578 309.815 L 429.719 309.815 A 6.635 6.635 0 0 1 434.562 307.003 A 9.966 9.966 0 0 1 435.766 306.932 A 8.919 8.919 0 0 1 438.276 307.267 A 6.677 6.677 0 0 1 441.664 309.525 A 8.599 8.599 0 0 1 443.172 312.429 Q 443.542 313.625 443.681 315.059 A 18.731 18.731 0 0 1 443.765 316.864 Q 443.765 320.214 442.71 322.508 A 8.202 8.202 0 0 1 441.646 324.239 A 6.908 6.908 0 0 1 436.737 326.821 A 9.897 9.897 0 0 1 435.766 326.867 A 8.851 8.851 0 0 1 433.542 326.596 A 7.701 7.701 0 0 1 432.33 326.173 A 6.463 6.463 0 0 1 429.719 324.037 Z M 479.468 324.107 L 479.468 326.34 Q 478.993 326.568 478.07 326.717 Q 477.147 326.867 476.409 326.867 A 7.622 7.622 0 0 1 474.163 326.565 Q 471.694 325.803 471.048 323.121 A 9.172 9.172 0 0 1 470.819 320.978 L 470.819 309.516 L 468.059 309.516 L 468.059 308.11 L 470.819 306.897 L 472.05 302.784 L 473.737 302.784 L 473.737 307.249 L 479.327 307.249 L 479.327 309.516 L 473.737 309.516 L 473.737 320.855 A 5.876 5.876 0 0 0 473.822 321.887 Q 474.002 322.894 474.563 323.527 Q 475.39 324.459 476.831 324.459 A 9.584 9.584 0 0 0 478.235 324.358 A 8.832 8.832 0 0 0 478.325 324.344 A 15.786 15.786 0 0 0 478.747 324.272 Q 479.149 324.197 479.429 324.118 A 4.381 4.381 0 0 0 479.468 324.107 Z M 492.178 324.107 L 492.178 326.34 Q 491.703 326.568 490.78 326.717 Q 489.857 326.867 489.119 326.867 A 7.622 7.622 0 0 1 486.873 326.565 Q 484.404 325.803 483.758 323.121 A 9.172 9.172 0 0 1 483.529 320.978 L 483.529 309.516 L 480.769 309.516 L 480.769 308.11 L 483.529 306.897 L 484.759 302.784 L 486.447 302.784 L 486.447 307.249 L 492.037 307.249 L 492.037 309.516 L 486.447 309.516 L 486.447 320.855 A 5.876 5.876 0 0 0 486.532 321.887 Q 486.711 322.894 487.273 323.527 Q 488.099 324.459 489.541 324.459 A 9.584 9.584 0 0 0 490.945 324.358 A 8.832 8.832 0 0 0 491.035 324.344 A 15.786 15.786 0 0 0 491.456 324.272 Q 491.859 324.197 492.138 324.118 A 4.381 4.381 0 0 0 492.178 324.107 Z M 465.225 319.797 A 15.073 15.073 0 0 0 465.493 316.864 A 17.127 17.127 0 0 0 465.486 316.401 Q 465.371 312.139 463.111 309.587 A 7.639 7.639 0 0 0 459.564 307.299 A 9.806 9.806 0 0 0 456.685 306.897 A 11.334 11.334 0 0 0 454.65 307.072 A 7.719 7.719 0 0 0 450.146 309.525 A 8.062 8.062 0 0 0 449.156 310.898 Q 448.393 312.228 448.056 313.934 A 15.152 15.152 0 0 0 447.79 316.864 A 14.598 14.598 0 0 0 447.974 319.229 A 10.795 10.795 0 0 0 448.88 322.173 A 9.591 9.591 0 0 0 449.093 322.589 A 7.9 7.9 0 0 0 451.974 325.654 A 8.125 8.125 0 0 0 453.839 326.483 A 9.371 9.371 0 0 0 456.562 326.867 A 11.331 11.331 0 0 0 458.541 326.702 A 7.78 7.78 0 0 0 463.119 324.221 A 8.14 8.14 0 0 0 464.089 322.89 Q 464.879 321.537 465.225 319.797 Z M 512.389 319.797 A 15.073 15.073 0 0 0 512.657 316.864 A 17.127 17.127 0 0 0 512.651 316.401 Q 512.536 312.139 510.275 309.587 A 7.639 7.639 0 0 0 506.729 307.299 A 9.806 9.806 0 0 0 503.85 306.897 A 11.334 11.334 0 0 0 501.814 307.072 A 7.719 7.719 0 0 0 497.311 309.525 A 8.062 8.062 0 0 0 496.321 310.898 Q 495.558 312.228 495.221 313.934 A 15.152 15.152 0 0 0 494.955 316.864 A 14.598 14.598 0 0 0 495.138 319.229 A 10.795 10.795 0 0 0 496.045 322.173 A 9.591 9.591 0 0 0 496.257 322.589 A 7.9 7.9 0 0 0 499.139 325.654 A 8.125 8.125 0 0 0 501.004 326.483 A 9.371 9.371 0 0 0 503.727 326.867 A 11.331 11.331 0 0 0 505.706 326.702 A 7.78 7.78 0 0 0 510.284 324.221 A 8.14 8.14 0 0 0 511.253 322.89 Q 512.044 321.537 512.389 319.797 Z M 451.436 320.915 A 6.122 6.122 0 0 0 452.291 322.49 A 4.783 4.783 0 0 0 455.406 324.324 A 7.247 7.247 0 0 0 456.633 324.423 A 6.778 6.778 0 0 0 458.421 324.201 A 4.717 4.717 0 0 0 460.983 322.498 Q 462.088 321.067 462.371 318.649 A 15.371 15.371 0 0 0 462.469 316.864 A 14.56 14.56 0 0 0 462.331 314.79 Q 462.179 313.733 461.858 312.878 A 6.008 6.008 0 0 0 460.983 311.283 A 4.8 4.8 0 0 0 457.999 309.502 A 7.36 7.36 0 0 0 456.597 309.376 A 6.945 6.945 0 0 0 454.868 309.578 A 4.648 4.648 0 0 0 452.273 311.257 Q 451.223 312.611 450.928 314.921 A 15.42 15.42 0 0 0 450.814 316.864 Q 450.814 319.26 451.436 320.915 Z M 498.6 320.915 A 6.122 6.122 0 0 0 499.455 322.49 A 4.783 4.783 0 0 0 502.57 324.324 A 7.247 7.247 0 0 0 503.797 324.423 A 6.778 6.778 0 0 0 505.586 324.201 A 4.717 4.717 0 0 0 508.148 322.498 Q 509.253 321.067 509.536 318.649 A 15.371 15.371 0 0 0 509.634 316.864 A 14.56 14.56 0 0 0 509.496 314.79 Q 509.343 313.733 509.022 312.878 A 6.008 6.008 0 0 0 508.148 311.283 A 4.8 4.8 0 0 0 505.164 309.502 A 7.36 7.36 0 0 0 503.762 309.376 A 6.945 6.945 0 0 0 502.033 309.578 A 4.648 4.648 0 0 0 499.438 311.257 Q 498.387 312.611 498.093 314.921 A 15.42 15.42 0 0 0 497.979 316.864 Q 497.979 319.26 498.6 320.915 Z M 432.165 310.1 A 3.881 3.881 0 0 0 431.037 311.09 A 4.995 4.995 0 0 0 430.314 312.467 Q 429.827 313.835 429.738 315.913 A 22.483 22.483 0 0 0 429.719 316.864 Q 429.719 320.314 430.696 322.095 A 4.401 4.401 0 0 0 431.073 322.674 Q 432.426 324.423 435.415 324.423 A 5.817 5.817 0 0 0 437.067 324.202 A 4.197 4.197 0 0 0 439.423 322.463 A 6.699 6.699 0 0 0 440.252 320.67 Q 440.741 319.068 440.741 316.829 A 17.241 17.241 0 0 0 440.637 314.865 Q 440.37 312.548 439.423 311.221 A 4.256 4.256 0 0 0 436.714 309.507 A 6.749 6.749 0 0 0 435.344 309.376 Q 433.402 309.376 432.165 310.1 Z" id="bottom_labelLayer" stroke="#777777" fill="#777777" style="stroke:#777777;fill:#777777" vector-effect="non-scaling-stroke"/></g></svg>